solid CATIA STL
  facet normal  1.000000e+000  0.000000e+000  0.000000e+000
    outer loop
      vertex  1.000000e+001  1.100000e+000 -8.000000e+000
      vertex  1.000000e+001  7.778175e-001 -8.777818e+000
      vertex  1.000000e+001  8.000000e+000 -1.100000e+000
    endloop
  endfacet
  facet normal  1.000000e+000  0.000000e+000  0.000000e+000
    outer loop
      vertex  1.000000e+001  1.100000e+000 -8.000000e+000
      vertex  1.000000e+001  8.000000e+000 -1.100000e+000
      vertex  1.000000e+001  7.778175e-001 -7.222183e+000
    endloop
  endfacet
  facet normal  1.000000e+000  0.000000e+000  0.000000e+000
    outer loop
      vertex  1.000000e+001 -7.865646e+000  6.175080e+000
      vertex  1.000000e+001 -2.020601e-016  6.900000e+000
      vertex  1.000000e+001 -7.778175e-001  7.222183e+000
    endloop
  endfacet
  facet normal  9.999999e-001  0.000000e+000  0.000000e+000
    outer loop
      vertex  1.000000e+001 -3.641573e+000 -9.313375e+000
      vertex  1.000000e+001 -2.020601e-016 -9.100000e+000
      vertex  1.000000e+001 -7.778175e-001 -8.777818e+000
    endloop
  endfacet
  facet normal  1.000000e+000  0.000000e+000  0.000000e+000
    outer loop
      vertex  1.000000e+001  7.222183e+000  7.778175e-001
      vertex  1.000000e+001  8.000000e+000  1.100000e+000
      vertex  1.000000e+001 -2.020601e-016  6.900000e+000
    endloop
  endfacet
  facet normal  1.000000e+000  0.000000e+000  0.000000e+000
    outer loop
      vertex  1.000000e+001  8.000000e+000  1.100000e+000
      vertex  1.000000e+001  1.873249e+001  2.128645e+000
      vertex  1.000000e+001  1.190257e+001  4.746758e+000
    endloop
  endfacet
  facet normal  1.000000e+000  0.000000e+000  0.000000e+000
    outer loop
      vertex  1.000000e+001 -1.836910e-015 -1.000000e+001
      vertex  1.000000e+001  5.000000e+001 -1.000000e+001
      vertex  1.000000e+001  8.000000e+000 -1.100000e+000
    endloop
  endfacet
  facet normal  1.000000e+000  0.000000e+000  0.000000e+000
    outer loop
      vertex  1.000000e+001 -1.836910e-015 -1.000000e+001
      vertex  1.000000e+001  8.000000e+000 -1.100000e+000
      vertex  1.000000e+001  7.778175e-001 -8.777818e+000
    endloop
  endfacet
  facet normal  1.000000e+000  0.000000e+000  0.000000e+000
    outer loop
      vertex  1.000000e+001 -1.836910e-015 -1.000000e+001
      vertex  1.000000e+001  7.778175e-001 -8.777818e+000
      vertex  1.000000e+001 -2.020601e-016 -9.100000e+000
    endloop
  endfacet
  facet normal  1.000000e+000  0.000000e+000  0.000000e+000
    outer loop
      vertex  1.000000e+001 -1.836910e-015 -1.000000e+001
      vertex  1.000000e+001 -2.020601e-016 -9.100000e+000
      vertex  1.000000e+001 -3.641573e+000 -9.313375e+000
    endloop
  endfacet
  facet normal  9.999999e-001  0.000000e+000  0.000000e+000
    outer loop
      vertex  1.000000e+001  5.527708e+000  8.333333e+000
      vertex  1.000000e+001  2.113517e+000  9.774100e+000
      vertex  1.000000e+001  6.735335e-017  9.100000e+000
    endloop
  endfacet
  facet normal  1.000000e+000  0.000000e+000  0.000000e+000
    outer loop
      vertex  1.000000e+001  5.527708e+000  8.333333e+000
      vertex  1.000000e+001  6.735335e-017  9.100000e+000
      vertex  1.000000e+001  7.778175e-001  8.777818e+000
    endloop
  endfacet
  facet normal  9.999999e-001  0.000000e+000  0.000000e+000
    outer loop
      vertex  1.000000e+001  5.527708e+000  8.333333e+000
      vertex  1.000000e+001  7.778175e-001  8.777818e+000
      vertex  1.000000e+001  1.100000e+000  8.000000e+000
    endloop
  endfacet
  facet normal  9.999999e-001  -0.000000e+000  0.000000e+000
    outer loop
      vertex  1.000000e+001  5.527708e+000  8.333333e+000
      vertex  1.000000e+001  1.100000e+000  8.000000e+000
      vertex  1.000000e+001  7.778175e-001  7.222183e+000
    endloop
  endfacet
  facet normal  1.000000e+000  -0.000000e+000  0.000000e+000
    outer loop
      vertex  1.000000e+001  5.527708e+000  8.333333e+000
      vertex  1.000000e+001  7.778175e-001  7.222183e+000
      vertex  1.000000e+001 -2.020601e-016  6.900000e+000
    endloop
  endfacet
  facet normal  1.000000e+000  -0.000000e+000  0.000000e+000
    outer loop
      vertex  1.000000e+001  5.527708e+000  8.333333e+000
      vertex  1.000000e+001 -2.020601e-016  6.900000e+000
      vertex  1.000000e+001  8.000000e+000  1.100000e+000
    endloop
  endfacet
  facet normal  1.000000e+000  0.000000e+000  -0.000000e+000
    outer loop
      vertex  1.000000e+001  5.527708e+000  8.333333e+000
      vertex  1.000000e+001  8.000000e+000  1.100000e+000
      vertex  1.000000e+001  1.190257e+001  4.746758e+000
    endloop
  endfacet
  facet normal  9.999999e-001  0.000000e+000  0.000000e+000
    outer loop
      vertex  1.000000e+001  6.735335e-017 -6.900000e+000
      vertex  1.000000e+001 -7.222183e+000  7.778175e-001
      vertex  1.000000e+001 -6.900000e+000  0.000000e+000
    endloop
  endfacet
  facet normal  9.999999e-001  0.000000e+000  0.000000e+000
    outer loop
      vertex  1.000000e+001  6.735335e-017 -6.900000e+000
      vertex  1.000000e+001 -6.900000e+000  0.000000e+000
      vertex  1.000000e+001 -7.222183e+000 -7.778175e-001
    endloop
  endfacet
  facet normal  1.000000e+000  0.000000e+000  0.000000e+000
    outer loop
      vertex  1.000000e+001  6.735335e-017 -6.900000e+000
      vertex  1.000000e+001 -7.222183e+000 -7.778175e-001
      vertex  1.000000e+001 -8.000000e+000 -1.100000e+000
    endloop
  endfacet
  facet normal  1.000000e+000  0.000000e+000  0.000000e+000
    outer loop
      vertex  1.000000e+001  6.735335e-017 -6.900000e+000
      vertex  1.000000e+001 -8.000000e+000 -1.100000e+000
      vertex  1.000000e+001 -6.783067e+000 -7.347789e+000
    endloop
  endfacet
  facet normal  1.000000e+000  0.000000e+000  0.000000e+000
    outer loop
      vertex  1.000000e+001  6.735335e-017 -6.900000e+000
      vertex  1.000000e+001 -6.783067e+000 -7.347789e+000
      vertex  1.000000e+001 -7.778175e-001 -7.222183e+000
    endloop
  endfacet
  facet normal  1.000000e+000  0.000000e+000  -0.000000e+000
    outer loop
      vertex  1.000000e+001  6.735335e-017 -6.900000e+000
      vertex  1.000000e+001  7.778175e-001 -7.222183e+000
      vertex  1.000000e+001  8.000000e+000 -1.100000e+000
    endloop
  endfacet
  facet normal  1.000000e+000  0.000000e+000  0.000000e+000
    outer loop
      vertex  1.000000e+001  6.735335e-017 -6.900000e+000
      vertex  1.000000e+001  8.000000e+000 -1.100000e+000
      vertex  1.000000e+001  7.222183e+000 -7.778175e-001
    endloop
  endfacet
  facet normal  9.999999e-001  0.000000e+000  0.000000e+000
    outer loop
      vertex  1.000000e+001  6.735335e-017 -6.900000e+000
      vertex  1.000000e+001  7.222183e+000 -7.778175e-001
      vertex  1.000000e+001  6.900000e+000  1.347067e-016
    endloop
  endfacet
  facet normal  9.999999e-001  0.000000e+000  -0.000000e+000
    outer loop
      vertex  1.000000e+001  6.735335e-017 -6.900000e+000
      vertex  1.000000e+001  6.900000e+000  1.347067e-016
      vertex  1.000000e+001  7.222183e+000  7.778175e-001
    endloop
  endfacet
  facet normal  1.000000e+000  0.000000e+000  0.000000e+000
    outer loop
      vertex  1.000000e+001  6.735335e-017 -6.900000e+000
      vertex  1.000000e+001  7.222183e+000  7.778175e-001
      vertex  1.000000e+001 -2.020601e-016  6.900000e+000
    endloop
  endfacet
  facet normal  1.000000e+000  0.000000e+000  0.000000e+000
    outer loop
      vertex  1.000000e+001  2.113517e+000  9.774100e+000
      vertex  1.000000e+001 -1.590912e+000  9.872639e+000
      vertex  1.000000e+001  6.735335e-017  9.100000e+000
    endloop
  endfacet
  facet normal  1.000000e+000  0.000000e+000  0.000000e+000
    outer loop
      vertex  1.000000e+001  6.735335e-017  9.100000e+000
      vertex  1.000000e+001 -1.590912e+000  9.872639e+000
      vertex  1.000000e+001 -5.076870e+000  8.615416e+000
    endloop
  endfacet
  facet normal  1.000000e+000  0.000000e+000  0.000000e+000
    outer loop
      vertex  1.000000e+001  6.735335e-017  9.100000e+000
      vertex  1.000000e+001 -5.076870e+000  8.615416e+000
      vertex  1.000000e+001 -7.778175e-001  8.777818e+000
    endloop
  endfacet
  facet normal  1.000000e+000  0.000000e+000  0.000000e+000
    outer loop
      vertex  1.000000e+001  6.735335e-017 -6.900000e+000
      vertex  1.000000e+001 -2.020601e-016  6.900000e+000
      vertex  1.000000e+001 -7.222183e+000  7.778175e-001
    endloop
  endfacet
  facet normal  1.000000e+000  0.000000e+000  -0.000000e+000
    outer loop
      vertex  1.000000e+001 -7.222183e+000  7.778175e-001
      vertex  1.000000e+001 -2.020601e-016  6.900000e+000
      vertex  1.000000e+001 -7.865646e+000  6.175080e+000
    endloop
  endfacet
  facet normal  9.999999e-001  0.000000e+000  0.000000e+000
    outer loop
      vertex  1.000000e+001 -7.222183e+000  7.778175e-001
      vertex  1.000000e+001 -7.865646e+000  6.175080e+000
      vertex  1.000000e+001 -8.000000e+000  1.100000e+000
    endloop
  endfacet
  facet normal  1.000000e+000  0.000000e+000  -0.000000e+000
    outer loop
      vertex  1.000000e+001 -8.000000e+000  1.100000e+000
      vertex  1.000000e+001 -7.865646e+000  6.175080e+000
      vertex  1.000000e+001 -9.574271e+000  2.886751e+000
    endloop
  endfacet
  facet normal  1.000000e+000  0.000000e+000  0.000000e+000
    outer loop
      vertex  1.000000e+001 -8.000000e+000  1.100000e+000
      vertex  1.000000e+001 -9.574271e+000  2.886751e+000
      vertex  1.000000e+001 -8.777818e+000  7.778175e-001
    endloop
  endfacet
  facet normal  1.000000e+000  0.000000e+000  0.000000e+000
    outer loop
      vertex  1.000000e+001 -8.777818e+000  7.778175e-001
      vertex  1.000000e+001 -9.574271e+000  2.886751e+000
      vertex  1.000000e+001 -9.100000e+000  1.347067e-016
    endloop
  endfacet
  facet normal  1.000000e+000  0.000000e+000  0.000000e+000
    outer loop
      vertex  1.000000e+001 -9.100000e+000  1.347067e-016
      vertex  1.000000e+001 -9.574271e+000  2.886751e+000
      vertex  1.000000e+001 -9.968109e+000 -7.980011e-001
    endloop
  endfacet
  facet normal  1.000000e+000  0.000000e+000  0.000000e+000
    outer loop
      vertex  1.000000e+001 -9.100000e+000  1.347067e-016
      vertex  1.000000e+001 -9.968109e+000 -7.980011e-001
      vertex  1.000000e+001 -8.777818e+000 -7.778175e-001
    endloop
  endfacet
  facet normal  9.999999e-001  -0.000000e+000  0.000000e+000
    outer loop
      vertex  1.000000e+001 -8.777818e+000 -7.778175e-001
      vertex  1.000000e+001 -9.968109e+000 -7.980011e-001
      vertex  1.000000e+001 -8.000000e+000 -1.100000e+000
    endloop
  endfacet
  facet normal  1.000000e+000  0.000000e+000  0.000000e+000
    outer loop
      vertex  1.000000e+001 -8.000000e+000 -1.100000e+000
      vertex  1.000000e+001 -9.968109e+000 -7.980011e-001
      vertex  1.000000e+001 -8.993075e+000 -4.373168e+000
    endloop
  endfacet
  facet normal  9.999999e-001  -0.000000e+000  0.000000e+000
    outer loop
      vertex  1.000000e+001 -8.000000e+000 -1.100000e+000
      vertex  1.000000e+001 -8.993075e+000 -4.373168e+000
      vertex  1.000000e+001 -6.783067e+000 -7.347789e+000
    endloop
  endfacet
  facet normal  1.000000e+000  -0.000000e+000  0.000000e+000
    outer loop
      vertex  1.000000e+001 -7.778175e-001  8.777818e+000
      vertex  1.000000e+001 -5.076870e+000  8.615416e+000
      vertex  1.000000e+001 -1.100000e+000  8.000000e+000
    endloop
  endfacet
  facet normal  1.000000e+000  0.000000e+000  0.000000e+000
    outer loop
      vertex  1.000000e+001 -1.100000e+000  8.000000e+000
      vertex  1.000000e+001 -5.076870e+000  8.615416e+000
      vertex  1.000000e+001 -7.865646e+000  6.175080e+000
    endloop
  endfacet
  facet normal  1.000000e+000  0.000000e+000  0.000000e+000
    outer loop
      vertex  1.000000e+001 -1.100000e+000  8.000000e+000
      vertex  1.000000e+001 -7.865646e+000  6.175080e+000
      vertex  1.000000e+001 -7.778175e-001  7.222183e+000
    endloop
  endfacet
  facet normal  1.000000e+000  -0.000000e+000  0.000000e+000
    outer loop
      vertex  1.000000e+001 -7.778175e-001 -7.222183e+000
      vertex  1.000000e+001 -6.783067e+000 -7.347789e+000
      vertex  1.000000e+001 -1.100000e+000 -8.000000e+000
    endloop
  endfacet
  facet normal  1.000000e+000  0.000000e+000  0.000000e+000
    outer loop
      vertex  1.000000e+001 -1.100000e+000 -8.000000e+000
      vertex  1.000000e+001 -6.783067e+000 -7.347789e+000
      vertex  1.000000e+001 -3.641573e+000 -9.313375e+000
    endloop
  endfacet
  facet normal  1.000000e+000  0.000000e+000  0.000000e+000
    outer loop
      vertex  1.000000e+001 -1.100000e+000 -8.000000e+000
      vertex  1.000000e+001 -3.641573e+000 -9.313375e+000
      vertex  1.000000e+001 -7.778175e-001 -8.777818e+000
    endloop
  endfacet
  facet normal  1.000000e+000  -0.000000e+000  0.000000e+000
    outer loop
      vertex  1.000000e+001  1.873249e+001  2.128645e+000
      vertex  1.000000e+001  8.000000e+000  1.100000e+000
      vertex  1.000000e+001  2.587131e+001  5.350236e-001
    endloop
  endfacet
  facet normal  1.000000e+000  0.000000e+000  0.000000e+000
    outer loop
      vertex  1.000000e+001  2.587131e+001  5.350236e-001
      vertex  1.000000e+001  8.000000e+000  1.100000e+000
      vertex  1.000000e+001  8.777818e+000  7.778175e-001
    endloop
  endfacet
  facet normal  1.000000e+000  0.000000e+000  0.000000e+000
    outer loop
      vertex  1.000000e+001  2.587131e+001  5.350236e-001
      vertex  1.000000e+001  8.777818e+000  7.778175e-001
      vertex  1.000000e+001  3.316625e+001  0.000000e+000
    endloop
  endfacet
  facet normal  1.000000e+000  0.000000e+000  0.000000e+000
    outer loop
      vertex  1.000000e+001  3.316625e+001  0.000000e+000
      vertex  1.000000e+001  8.777818e+000  7.778175e-001
      vertex  1.000000e+001  9.100000e+000  0.000000e+000
    endloop
  endfacet
  facet normal  1.000000e+000  -0.000000e+000  0.000000e+000
    outer loop
      vertex  1.000000e+001  3.316625e+001  0.000000e+000
      vertex  1.000000e+001  9.100000e+000  0.000000e+000
      vertex  1.000000e+001  8.777818e+000 -7.778175e-001
    endloop
  endfacet
  facet normal  1.000000e+000  0.000000e+000  0.000000e+000
    outer loop
      vertex  1.000000e+001  3.316625e+001  0.000000e+000
      vertex  1.000000e+001  8.777818e+000 -7.778175e-001
      vertex  1.000000e+001  5.000000e+001  0.000000e+000
    endloop
  endfacet
  facet normal  9.999999e-001  0.000000e+000  0.000000e+000
    outer loop
      vertex  1.000000e+001  5.000000e+001  0.000000e+000
      vertex  1.000000e+001  8.777818e+000 -7.778175e-001
      vertex  1.000000e+001  8.000000e+000 -1.100000e+000
    endloop
  endfacet
  facet normal  1.000000e+000  -0.000000e+000  0.000000e+000
    outer loop
      vertex  1.000000e+001  5.000000e+001  0.000000e+000
      vertex  1.000000e+001  8.000000e+000 -1.100000e+000
      vertex  1.000000e+001  5.000000e+001 -1.000000e+001
    endloop
  endfacet
  facet normal -1.000000e+000  0.000000e+000  0.000000e+000
    outer loop
      vertex  0.000000e+000  8.000000e+000 -1.100000e+000
      vertex  0.000000e+000  7.778175e-001 -8.777818e+000
      vertex  0.000000e+000  1.100000e+000 -8.000000e+000
    endloop
  endfacet
  facet normal -1.000000e+000  0.000000e+000  0.000000e+000
    outer loop
      vertex  0.000000e+000  7.778175e-001 -7.222183e+000
      vertex  0.000000e+000  8.000000e+000 -1.100000e+000
      vertex  0.000000e+000  1.100000e+000 -8.000000e+000
    endloop
  endfacet
  facet normal -1.000000e+000  -0.000000e+000  0.000000e+000
    outer loop
      vertex  0.000000e+000 -7.778175e-001  7.222183e+000
      vertex  0.000000e+000 -2.020601e-016  6.900000e+000
      vertex  0.000000e+000 -7.865646e+000  6.175080e+000
    endloop
  endfacet
  facet normal -9.999999e-001  -0.000000e+000  0.000000e+000
    outer loop
      vertex  0.000000e+000 -7.778175e-001 -8.777818e+000
      vertex  0.000000e+000 -2.020601e-016 -9.100000e+000
      vertex  0.000000e+000 -3.641573e+000 -9.313375e+000
    endloop
  endfacet
  facet normal -1.000000e+000  -0.000000e+000  0.000000e+000
    outer loop
      vertex  0.000000e+000 -2.020601e-016  6.900000e+000
      vertex  0.000000e+000  8.000000e+000  1.100000e+000
      vertex  0.000000e+000  7.222183e+000  7.778175e-001
    endloop
  endfacet
  facet normal -1.000000e+000  -0.000000e+000  0.000000e+000
    outer loop
      vertex  0.000000e+000  1.190257e+001  4.746758e+000
      vertex  0.000000e+000  1.873249e+001  2.128645e+000
      vertex  0.000000e+000  8.000000e+000  1.100000e+000
    endloop
  endfacet
  facet normal -1.000000e+000  0.000000e+000  0.000000e+000
    outer loop
      vertex  0.000000e+000 -1.836910e-015 -1.000000e+001
      vertex  0.000000e+000 -3.641573e+000 -9.313375e+000
      vertex  0.000000e+000 -2.020601e-016 -9.100000e+000
    endloop
  endfacet
  facet normal -1.000000e+000  0.000000e+000  -0.000000e+000
    outer loop
      vertex  0.000000e+000 -1.836910e-015 -1.000000e+001
      vertex  0.000000e+000 -2.020601e-016 -9.100000e+000
      vertex  0.000000e+000  7.778175e-001 -8.777818e+000
    endloop
  endfacet
  facet normal -1.000000e+000  0.000000e+000  -0.000000e+000
    outer loop
      vertex  0.000000e+000 -1.836910e-015 -1.000000e+001
      vertex  0.000000e+000  7.778175e-001 -8.777818e+000
      vertex  0.000000e+000  8.000000e+000 -1.100000e+000
    endloop
  endfacet
  facet normal -1.000000e+000  0.000000e+000  -0.000000e+000
    outer loop
      vertex  0.000000e+000 -1.836910e-015 -1.000000e+001
      vertex  0.000000e+000  8.000000e+000 -1.100000e+000
      vertex  0.000000e+000  5.000000e+001 -1.000000e+001
    endloop
  endfacet
  facet normal -1.000000e+000  -0.000000e+000  0.000000e+000
    outer loop
      vertex  0.000000e+000  5.527708e+000  8.333333e+000
      vertex  0.000000e+000  1.190257e+001  4.746758e+000
      vertex  0.000000e+000  8.000000e+000  1.100000e+000
    endloop
  endfacet
  facet normal -1.000000e+000  0.000000e+000  0.000000e+000
    outer loop
      vertex  0.000000e+000  5.527708e+000  8.333333e+000
      vertex  0.000000e+000  8.000000e+000  1.100000e+000
      vertex  0.000000e+000 -2.020601e-016  6.900000e+000
    endloop
  endfacet
  facet normal -1.000000e+000  0.000000e+000  0.000000e+000
    outer loop
      vertex  0.000000e+000  5.527708e+000  8.333333e+000
      vertex  0.000000e+000 -2.020601e-016  6.900000e+000
      vertex  0.000000e+000  7.778175e-001  7.222183e+000
    endloop
  endfacet
  facet normal -1.000000e+000  0.000000e+000  0.000000e+000
    outer loop
      vertex  0.000000e+000  5.527708e+000  8.333333e+000
      vertex  0.000000e+000  7.778175e-001  7.222183e+000
      vertex  0.000000e+000  1.100000e+000  8.000000e+000
    endloop
  endfacet
  facet normal -1.000000e+000  0.000000e+000  0.000000e+000
    outer loop
      vertex  0.000000e+000  5.527708e+000  8.333333e+000
      vertex  0.000000e+000  1.100000e+000  8.000000e+000
      vertex  0.000000e+000  7.778175e-001  8.777818e+000
    endloop
  endfacet
  facet normal -1.000000e+000  0.000000e+000  0.000000e+000
    outer loop
      vertex  0.000000e+000  5.527708e+000  8.333333e+000
      vertex  0.000000e+000  7.778175e-001  8.777818e+000
      vertex  0.000000e+000  6.735335e-017  9.100000e+000
    endloop
  endfacet
  facet normal -9.999999e-001  0.000000e+000  0.000000e+000
    outer loop
      vertex  0.000000e+000  5.527708e+000  8.333333e+000
      vertex  0.000000e+000  6.735335e-017  9.100000e+000
      vertex  0.000000e+000  2.113517e+000  9.774100e+000
    endloop
  endfacet
  facet normal -1.000000e+000  -0.000000e+000  0.000000e+000
    outer loop
      vertex  0.000000e+000  6.735335e-017 -6.900000e+000
      vertex  0.000000e+000 -7.778175e-001 -7.222183e+000
      vertex  0.000000e+000 -6.783067e+000 -7.347789e+000
    endloop
  endfacet
  facet normal -1.000000e+000  0.000000e+000  0.000000e+000
    outer loop
      vertex  0.000000e+000  6.735335e-017 -6.900000e+000
      vertex  0.000000e+000 -6.783067e+000 -7.347789e+000
      vertex  0.000000e+000 -8.000000e+000 -1.100000e+000
    endloop
  endfacet
  facet normal -1.000000e+000  0.000000e+000  0.000000e+000
    outer loop
      vertex  0.000000e+000  6.735335e-017 -6.900000e+000
      vertex  0.000000e+000 -8.000000e+000 -1.100000e+000
      vertex  0.000000e+000 -7.222183e+000 -7.778175e-001
    endloop
  endfacet
  facet normal -9.999999e-001  0.000000e+000  0.000000e+000
    outer loop
      vertex  0.000000e+000  6.735335e-017 -6.900000e+000
      vertex  0.000000e+000 -7.222183e+000 -7.778175e-001
      vertex  0.000000e+000 -6.900000e+000  0.000000e+000
    endloop
  endfacet
  facet normal -9.999999e-001  0.000000e+000  0.000000e+000
    outer loop
      vertex  0.000000e+000  6.735335e-017 -6.900000e+000
      vertex  0.000000e+000 -6.900000e+000  0.000000e+000
      vertex  0.000000e+000 -7.222183e+000  7.778175e-001
    endloop
  endfacet
  facet normal -1.000000e+000  0.000000e+000  0.000000e+000
    outer loop
      vertex  0.000000e+000  6.735335e-017 -6.900000e+000
      vertex  0.000000e+000 -2.020601e-016  6.900000e+000
      vertex  0.000000e+000  7.222183e+000  7.778175e-001
    endloop
  endfacet
  facet normal -9.999999e-001  0.000000e+000  0.000000e+000
    outer loop
      vertex  0.000000e+000  6.735335e-017 -6.900000e+000
      vertex  0.000000e+000  7.222183e+000  7.778175e-001
      vertex  0.000000e+000  6.900000e+000  1.347067e-016
    endloop
  endfacet
  facet normal -9.999999e-001  0.000000e+000  -0.000000e+000
    outer loop
      vertex  0.000000e+000  6.735335e-017 -6.900000e+000
      vertex  0.000000e+000  6.900000e+000  1.347067e-016
      vertex  0.000000e+000  7.222183e+000 -7.778175e-001
    endloop
  endfacet
  facet normal -1.000000e+000  0.000000e+000  -0.000000e+000
    outer loop
      vertex  0.000000e+000  6.735335e-017 -6.900000e+000
      vertex  0.000000e+000  7.222183e+000 -7.778175e-001
      vertex  0.000000e+000  8.000000e+000 -1.100000e+000
    endloop
  endfacet
  facet normal -1.000000e+000  0.000000e+000  0.000000e+000
    outer loop
      vertex  0.000000e+000  6.735335e-017 -6.900000e+000
      vertex  0.000000e+000  8.000000e+000 -1.100000e+000
      vertex  0.000000e+000  7.778175e-001 -7.222183e+000
    endloop
  endfacet
  facet normal -1.000000e+000  -0.000000e+000  0.000000e+000
    outer loop
      vertex  0.000000e+000 -1.590912e+000  9.872639e+000
      vertex  0.000000e+000  2.113517e+000  9.774100e+000
      vertex  0.000000e+000 -5.076870e+000  8.615416e+000
    endloop
  endfacet
  facet normal -9.999999e-001  0.000000e+000  0.000000e+000
    outer loop
      vertex  0.000000e+000 -5.076870e+000  8.615416e+000
      vertex  0.000000e+000  2.113517e+000  9.774100e+000
      vertex  0.000000e+000  6.735335e-017  9.100000e+000
    endloop
  endfacet
  facet normal -1.000000e+000  0.000000e+000  0.000000e+000
    outer loop
      vertex  0.000000e+000 -5.076870e+000  8.615416e+000
      vertex  0.000000e+000  6.735335e-017  9.100000e+000
      vertex  0.000000e+000 -7.778175e-001  8.777818e+000
    endloop
  endfacet
  facet normal -1.000000e+000  0.000000e+000  0.000000e+000
    outer loop
      vertex  0.000000e+000 -2.020601e-016  6.900000e+000
      vertex  0.000000e+000  6.735335e-017 -6.900000e+000
      vertex  0.000000e+000 -7.865646e+000  6.175080e+000
    endloop
  endfacet
  facet normal -9.999999e-001  0.000000e+000  0.000000e+000
    outer loop
      vertex  0.000000e+000 -7.865646e+000  6.175080e+000
      vertex  0.000000e+000  6.735335e-017 -6.900000e+000
      vertex  0.000000e+000 -7.222183e+000  7.778175e-001
    endloop
  endfacet
  facet normal -1.000000e+000  0.000000e+000  0.000000e+000
    outer loop
      vertex  0.000000e+000 -7.865646e+000  6.175080e+000
      vertex  0.000000e+000 -7.222183e+000  7.778175e-001
      vertex  0.000000e+000 -9.574271e+000  2.886751e+000
    endloop
  endfacet
  facet normal -9.999999e-001  0.000000e+000  0.000000e+000
    outer loop
      vertex  0.000000e+000 -9.574271e+000  2.886751e+000
      vertex  0.000000e+000 -7.222183e+000  7.778175e-001
      vertex  0.000000e+000 -8.000000e+000  1.100000e+000
    endloop
  endfacet
  facet normal -1.000000e+000  -0.000000e+000  0.000000e+000
    outer loop
      vertex  0.000000e+000 -9.574271e+000  2.886751e+000
      vertex  0.000000e+000 -8.000000e+000  1.100000e+000
      vertex  0.000000e+000 -8.777818e+000  7.778175e-001
    endloop
  endfacet
  facet normal -1.000000e+000  -0.000000e+000  0.000000e+000
    outer loop
      vertex  0.000000e+000 -9.574271e+000  2.886751e+000
      vertex  0.000000e+000 -8.777818e+000  7.778175e-001
      vertex  0.000000e+000 -9.968109e+000 -7.980011e-001
    endloop
  endfacet
  facet normal -1.000000e+000  0.000000e+000  0.000000e+000
    outer loop
      vertex  0.000000e+000 -9.968109e+000 -7.980011e-001
      vertex  0.000000e+000 -8.777818e+000  7.778175e-001
      vertex  0.000000e+000 -9.100000e+000  1.347067e-016
    endloop
  endfacet
  facet normal -1.000000e+000  0.000000e+000  -0.000000e+000
    outer loop
      vertex  0.000000e+000 -9.968109e+000 -7.980011e-001
      vertex  0.000000e+000 -9.100000e+000  1.347067e-016
      vertex  0.000000e+000 -8.777818e+000 -7.778175e-001
    endloop
  endfacet
  facet normal -1.000000e+000  0.000000e+000  0.000000e+000
    outer loop
      vertex  0.000000e+000 -9.968109e+000 -7.980011e-001
      vertex  0.000000e+000 -8.777818e+000 -7.778175e-001
      vertex  0.000000e+000 -8.993075e+000 -4.373168e+000
    endloop
  endfacet
  facet normal -1.000000e+000  0.000000e+000  0.000000e+000
    outer loop
      vertex  0.000000e+000 -8.993075e+000 -4.373168e+000
      vertex  0.000000e+000 -8.777818e+000 -7.778175e-001
      vertex  0.000000e+000 -8.000000e+000 -1.100000e+000
    endloop
  endfacet
  facet normal -9.999999e-001  0.000000e+000  -0.000000e+000
    outer loop
      vertex  0.000000e+000 -8.993075e+000 -4.373168e+000
      vertex  0.000000e+000 -8.000000e+000 -1.100000e+000
      vertex  0.000000e+000 -6.783067e+000 -7.347789e+000
    endloop
  endfacet
  facet normal -1.000000e+000  0.000000e+000  0.000000e+000
    outer loop
      vertex  0.000000e+000 -5.076870e+000  8.615416e+000
      vertex  0.000000e+000 -7.778175e-001  8.777818e+000
      vertex  0.000000e+000 -7.865646e+000  6.175080e+000
    endloop
  endfacet
  facet normal -1.000000e+000  0.000000e+000  0.000000e+000
    outer loop
      vertex  0.000000e+000 -7.865646e+000  6.175080e+000
      vertex  0.000000e+000 -7.778175e-001  8.777818e+000
      vertex  0.000000e+000 -1.100000e+000  8.000000e+000
    endloop
  endfacet
  facet normal -1.000000e+000  0.000000e+000  -0.000000e+000
    outer loop
      vertex  0.000000e+000 -7.865646e+000  6.175080e+000
      vertex  0.000000e+000 -1.100000e+000  8.000000e+000
      vertex  0.000000e+000 -7.778175e-001  7.222183e+000
    endloop
  endfacet
  facet normal -1.000000e+000  0.000000e+000  0.000000e+000
    outer loop
      vertex  0.000000e+000 -6.783067e+000 -7.347789e+000
      vertex  0.000000e+000 -7.778175e-001 -7.222183e+000
      vertex  0.000000e+000 -3.641573e+000 -9.313375e+000
    endloop
  endfacet
  facet normal -1.000000e+000  0.000000e+000  0.000000e+000
    outer loop
      vertex  0.000000e+000 -3.641573e+000 -9.313375e+000
      vertex  0.000000e+000 -7.778175e-001 -7.222183e+000
      vertex  0.000000e+000 -1.100000e+000 -8.000000e+000
    endloop
  endfacet
  facet normal -1.000000e+000  0.000000e+000  -0.000000e+000
    outer loop
      vertex  0.000000e+000 -3.641573e+000 -9.313375e+000
      vertex  0.000000e+000 -1.100000e+000 -8.000000e+000
      vertex  0.000000e+000 -7.778175e-001 -8.777818e+000
    endloop
  endfacet
  facet normal -9.999999e-001  0.000000e+000  0.000000e+000
    outer loop
      vertex  0.000000e+000  8.000000e+000  1.100000e+000
      vertex  0.000000e+000  1.873249e+001  2.128645e+000
      vertex  0.000000e+000  8.777818e+000  7.778175e-001
    endloop
  endfacet
  facet normal -1.000000e+000  0.000000e+000  0.000000e+000
    outer loop
      vertex  0.000000e+000  8.777818e+000  7.778175e-001
      vertex  0.000000e+000  1.873249e+001  2.128645e+000
      vertex  0.000000e+000  2.587131e+001  5.350236e-001
    endloop
  endfacet
  facet normal -1.000000e+000  -0.000000e+000  0.000000e+000
    outer loop
      vertex  0.000000e+000  8.777818e+000  7.778175e-001
      vertex  0.000000e+000  2.587131e+001  5.350236e-001
      vertex  0.000000e+000  9.100000e+000  0.000000e+000
    endloop
  endfacet
  facet normal -9.999999e-001  0.000000e+000  0.000000e+000
    outer loop
      vertex  0.000000e+000  9.100000e+000  0.000000e+000
      vertex  0.000000e+000  2.587131e+001  5.350236e-001
      vertex  0.000000e+000  3.316625e+001  0.000000e+000
    endloop
  endfacet
  facet normal -1.000000e+000  -0.000000e+000  0.000000e+000
    outer loop
      vertex  0.000000e+000  9.100000e+000  0.000000e+000
      vertex  0.000000e+000  3.316625e+001  0.000000e+000
      vertex  0.000000e+000  8.777818e+000 -7.778175e-001
    endloop
  endfacet
  facet normal -1.000000e+000  0.000000e+000  0.000000e+000
    outer loop
      vertex  0.000000e+000  8.777818e+000 -7.778175e-001
      vertex  0.000000e+000  3.316625e+001  0.000000e+000
      vertex  0.000000e+000  8.000000e+000 -1.100000e+000
    endloop
  endfacet
  facet normal -1.000000e+000  0.000000e+000  0.000000e+000
    outer loop
      vertex  0.000000e+000  8.000000e+000 -1.100000e+000
      vertex  0.000000e+000  3.316625e+001  0.000000e+000
      vertex  0.000000e+000  5.000000e+001  0.000000e+000
    endloop
  endfacet
  facet normal -1.000000e+000  0.000000e+000  -0.000000e+000
    outer loop
      vertex  0.000000e+000  8.000000e+000 -1.100000e+000
      vertex  0.000000e+000  5.000000e+001  0.000000e+000
      vertex  0.000000e+000  5.000000e+001 -1.000000e+001
    endloop
  endfacet
  facet normal  0.000000e+000  9.238795e-001 -3.826835e-001
    outer loop
      vertex  1.000000e+001  6.900000e+000  1.347067e-016
      vertex  0.000000e+000  6.900000e+000  1.347067e-016
      vertex  1.000000e+001  7.222183e+000  7.778175e-001
    endloop
  endfacet
  facet normal  0.000000e+000  9.238795e-001 -3.826835e-001
    outer loop
      vertex  1.000000e+001  7.222183e+000  7.778175e-001
      vertex  0.000000e+000  6.900000e+000  1.347067e-016
      vertex  0.000000e+000  7.222183e+000  7.778175e-001
    endloop
  endfacet
  facet normal  0.000000e+000  3.826835e-001 -9.238794e-001
    outer loop
      vertex  1.000000e+001  7.222183e+000  7.778175e-001
      vertex  0.000000e+000  7.222183e+000  7.778175e-001
      vertex  1.000000e+001  8.000000e+000  1.100000e+000
    endloop
  endfacet
  facet normal  0.000000e+000  3.826835e-001 -9.238794e-001
    outer loop
      vertex  1.000000e+001  8.000000e+000  1.100000e+000
      vertex  0.000000e+000  7.222183e+000  7.778175e-001
      vertex  0.000000e+000  8.000000e+000  1.100000e+000
    endloop
  endfacet
  facet normal  0.000000e+000 -3.826833e-001 -9.238796e-001
    outer loop
      vertex  1.000000e+001  8.000000e+000  1.100000e+000
      vertex  0.000000e+000  8.000000e+000  1.100000e+000
      vertex  1.000000e+001  8.777818e+000  7.778175e-001
    endloop
  endfacet
  facet normal  -0.000000e+000 -3.826833e-001 -9.238796e-001
    outer loop
      vertex  1.000000e+001  8.777818e+000  7.778175e-001
      vertex  0.000000e+000  8.000000e+000  1.100000e+000
      vertex  0.000000e+000  8.777818e+000  7.778175e-001
    endloop
  endfacet
  facet normal  0.000000e+000 -9.238795e-001 -3.826835e-001
    outer loop
      vertex  1.000000e+001  8.777818e+000  7.778175e-001
      vertex  0.000000e+000  8.777818e+000  7.778175e-001
      vertex  1.000000e+001  9.100000e+000  0.000000e+000
    endloop
  endfacet
  facet normal  -0.000000e+000 -9.238795e-001 -3.826835e-001
    outer loop
      vertex  1.000000e+001  9.100000e+000  0.000000e+000
      vertex  0.000000e+000  8.777818e+000  7.778175e-001
      vertex  0.000000e+000  9.100000e+000  0.000000e+000
    endloop
  endfacet
  facet normal  0.000000e+000 -9.238795e-001  3.826835e-001
    outer loop
      vertex  1.000000e+001  9.100000e+000  0.000000e+000
      vertex  0.000000e+000  9.100000e+000  0.000000e+000
      vertex  1.000000e+001  8.777818e+000 -7.778175e-001
    endloop
  endfacet
  facet normal  0.000000e+000 -9.238795e-001  3.826835e-001
    outer loop
      vertex  1.000000e+001  8.777818e+000 -7.778175e-001
      vertex  0.000000e+000  9.100000e+000  0.000000e+000
      vertex  0.000000e+000  8.777818e+000 -7.778175e-001
    endloop
  endfacet
  facet normal  0.000000e+000 -3.826833e-001  9.238796e-001
    outer loop
      vertex  1.000000e+001  8.777818e+000 -7.778175e-001
      vertex  0.000000e+000  8.777818e+000 -7.778175e-001
      vertex  1.000000e+001  8.000000e+000 -1.100000e+000
    endloop
  endfacet
  facet normal  0.000000e+000 -3.826833e-001  9.238796e-001
    outer loop
      vertex  1.000000e+001  8.000000e+000 -1.100000e+000
      vertex  0.000000e+000  8.777818e+000 -7.778175e-001
      vertex  0.000000e+000  8.000000e+000 -1.100000e+000
    endloop
  endfacet
  facet normal  -0.000000e+000  3.826835e-001  9.238794e-001
    outer loop
      vertex  1.000000e+001  8.000000e+000 -1.100000e+000
      vertex  0.000000e+000  8.000000e+000 -1.100000e+000
      vertex  1.000000e+001  7.222183e+000 -7.778175e-001
    endloop
  endfacet
  facet normal  0.000000e+000  3.826835e-001  9.238794e-001
    outer loop
      vertex  1.000000e+001  7.222183e+000 -7.778175e-001
      vertex  0.000000e+000  8.000000e+000 -1.100000e+000
      vertex  0.000000e+000  7.222183e+000 -7.778175e-001
    endloop
  endfacet
  facet normal  -0.000000e+000  9.238795e-001  3.826835e-001
    outer loop
      vertex  1.000000e+001  7.222183e+000 -7.778175e-001
      vertex  0.000000e+000  7.222183e+000 -7.778175e-001
      vertex  1.000000e+001  6.900000e+000  1.347067e-016
    endloop
  endfacet
  facet normal  0.000000e+000  9.238795e-001  3.826835e-001
    outer loop
      vertex  1.000000e+001  6.900000e+000  1.347067e-016
      vertex  0.000000e+000  7.222183e+000 -7.778175e-001
      vertex  0.000000e+000  6.900000e+000  1.347067e-016
    endloop
  endfacet
  facet normal  0.000000e+000  9.238795e-001 -3.826835e-001
    outer loop
      vertex  1.000000e+001 -9.100000e+000  1.347067e-016
      vertex  0.000000e+000 -9.100000e+000  1.347067e-016
      vertex  1.000000e+001 -8.777818e+000  7.778175e-001
    endloop
  endfacet
  facet normal  0.000000e+000  9.238795e-001 -3.826835e-001
    outer loop
      vertex  1.000000e+001 -8.777818e+000  7.778175e-001
      vertex  0.000000e+000 -9.100000e+000  1.347067e-016
      vertex  0.000000e+000 -8.777818e+000  7.778175e-001
    endloop
  endfacet
  facet normal  0.000000e+000  3.826833e-001 -9.238796e-001
    outer loop
      vertex  1.000000e+001 -8.777818e+000  7.778175e-001
      vertex  0.000000e+000 -8.777818e+000  7.778175e-001
      vertex  1.000000e+001 -8.000000e+000  1.100000e+000
    endloop
  endfacet
  facet normal  0.000000e+000  3.826833e-001 -9.238796e-001
    outer loop
      vertex  1.000000e+001 -8.000000e+000  1.100000e+000
      vertex  0.000000e+000 -8.777818e+000  7.778175e-001
      vertex  0.000000e+000 -8.000000e+000  1.100000e+000
    endloop
  endfacet
  facet normal  0.000000e+000 -3.826835e-001 -9.238794e-001
    outer loop
      vertex  1.000000e+001 -8.000000e+000  1.100000e+000
      vertex  0.000000e+000 -8.000000e+000  1.100000e+000
      vertex  1.000000e+001 -7.222183e+000  7.778175e-001
    endloop
  endfacet
  facet normal  -0.000000e+000 -3.826835e-001 -9.238794e-001
    outer loop
      vertex  1.000000e+001 -7.222183e+000  7.778175e-001
      vertex  0.000000e+000 -8.000000e+000  1.100000e+000
      vertex  0.000000e+000 -7.222183e+000  7.778175e-001
    endloop
  endfacet
  facet normal  0.000000e+000 -9.238795e-001 -3.826835e-001
    outer loop
      vertex  1.000000e+001 -7.222183e+000  7.778175e-001
      vertex  0.000000e+000 -7.222183e+000  7.778175e-001
      vertex  1.000000e+001 -6.900000e+000  0.000000e+000
    endloop
  endfacet
  facet normal  -0.000000e+000 -9.238795e-001 -3.826835e-001
    outer loop
      vertex  1.000000e+001 -6.900000e+000  0.000000e+000
      vertex  0.000000e+000 -7.222183e+000  7.778175e-001
      vertex  0.000000e+000 -6.900000e+000  0.000000e+000
    endloop
  endfacet
  facet normal  0.000000e+000 -9.238795e-001  3.826835e-001
    outer loop
      vertex  1.000000e+001 -6.900000e+000  0.000000e+000
      vertex  0.000000e+000 -6.900000e+000  0.000000e+000
      vertex  1.000000e+001 -7.222183e+000 -7.778175e-001
    endloop
  endfacet
  facet normal  0.000000e+000 -9.238795e-001  3.826835e-001
    outer loop
      vertex  1.000000e+001 -7.222183e+000 -7.778175e-001
      vertex  0.000000e+000 -6.900000e+000  0.000000e+000
      vertex  0.000000e+000 -7.222183e+000 -7.778175e-001
    endloop
  endfacet
  facet normal  0.000000e+000 -3.826835e-001  9.238794e-001
    outer loop
      vertex  1.000000e+001 -7.222183e+000 -7.778175e-001
      vertex  0.000000e+000 -7.222183e+000 -7.778175e-001
      vertex  1.000000e+001 -8.000000e+000 -1.100000e+000
    endloop
  endfacet
  facet normal  0.000000e+000 -3.826835e-001  9.238794e-001
    outer loop
      vertex  1.000000e+001 -8.000000e+000 -1.100000e+000
      vertex  0.000000e+000 -7.222183e+000 -7.778175e-001
      vertex  0.000000e+000 -8.000000e+000 -1.100000e+000
    endloop
  endfacet
  facet normal  -0.000000e+000  3.826833e-001  9.238796e-001
    outer loop
      vertex  1.000000e+001 -8.000000e+000 -1.100000e+000
      vertex  0.000000e+000 -8.000000e+000 -1.100000e+000
      vertex  1.000000e+001 -8.777818e+000 -7.778175e-001
    endloop
  endfacet
  facet normal  0.000000e+000  3.826833e-001  9.238796e-001
    outer loop
      vertex  1.000000e+001 -8.777818e+000 -7.778175e-001
      vertex  0.000000e+000 -8.000000e+000 -1.100000e+000
      vertex  0.000000e+000 -8.777818e+000 -7.778175e-001
    endloop
  endfacet
  facet normal  -0.000000e+000  9.238795e-001  3.826835e-001
    outer loop
      vertex  1.000000e+001 -8.777818e+000 -7.778175e-001
      vertex  0.000000e+000 -8.777818e+000 -7.778175e-001
      vertex  1.000000e+001 -9.100000e+000  1.347067e-016
    endloop
  endfacet
  facet normal  0.000000e+000  9.238795e-001  3.826835e-001
    outer loop
      vertex  1.000000e+001 -9.100000e+000  1.347067e-016
      vertex  0.000000e+000 -8.777818e+000 -7.778175e-001
      vertex  0.000000e+000 -9.100000e+000  1.347067e-016
    endloop
  endfacet
  facet normal  0.000000e+000  9.238794e-001 -3.826835e-001
    outer loop
      vertex  1.000000e+001 -1.100000e+000 -8.000000e+000
      vertex  0.000000e+000 -1.100000e+000 -8.000000e+000
      vertex  1.000000e+001 -7.778175e-001 -7.222183e+000
    endloop
  endfacet
  facet normal  0.000000e+000  9.238794e-001 -3.826835e-001
    outer loop
      vertex  1.000000e+001 -7.778175e-001 -7.222183e+000
      vertex  0.000000e+000 -1.100000e+000 -8.000000e+000
      vertex  0.000000e+000 -7.778175e-001 -7.222183e+000
    endloop
  endfacet
  facet normal  0.000000e+000  3.826835e-001 -9.238795e-001
    outer loop
      vertex  1.000000e+001 -7.778175e-001 -7.222183e+000
      vertex  0.000000e+000 -7.778175e-001 -7.222183e+000
      vertex  1.000000e+001  6.735335e-017 -6.900000e+000
    endloop
  endfacet
  facet normal  0.000000e+000  3.826835e-001 -9.238795e-001
    outer loop
      vertex  1.000000e+001  6.735335e-017 -6.900000e+000
      vertex  0.000000e+000 -7.778175e-001 -7.222183e+000
      vertex  0.000000e+000  6.735335e-017 -6.900000e+000
    endloop
  endfacet
  facet normal  0.000000e+000 -3.826835e-001 -9.238795e-001
    outer loop
      vertex  1.000000e+001  6.735335e-017 -6.900000e+000
      vertex  0.000000e+000  6.735335e-017 -6.900000e+000
      vertex  1.000000e+001  7.778175e-001 -7.222183e+000
    endloop
  endfacet
  facet normal  -0.000000e+000 -3.826835e-001 -9.238795e-001
    outer loop
      vertex  1.000000e+001  7.778175e-001 -7.222183e+000
      vertex  0.000000e+000  6.735335e-017 -6.900000e+000
      vertex  0.000000e+000  7.778175e-001 -7.222183e+000
    endloop
  endfacet
  facet normal  0.000000e+000 -9.238794e-001 -3.826835e-001
    outer loop
      vertex  1.000000e+001  7.778175e-001 -7.222183e+000
      vertex  0.000000e+000  7.778175e-001 -7.222183e+000
      vertex  1.000000e+001  1.100000e+000 -8.000000e+000
    endloop
  endfacet
  facet normal  -0.000000e+000 -9.238794e-001 -3.826835e-001
    outer loop
      vertex  1.000000e+001  1.100000e+000 -8.000000e+000
      vertex  0.000000e+000  7.778175e-001 -7.222183e+000
      vertex  0.000000e+000  1.100000e+000 -8.000000e+000
    endloop
  endfacet
  facet normal  0.000000e+000 -9.238796e-001  3.826833e-001
    outer loop
      vertex  1.000000e+001  1.100000e+000 -8.000000e+000
      vertex  0.000000e+000  1.100000e+000 -8.000000e+000
      vertex  1.000000e+001  7.778175e-001 -8.777818e+000
    endloop
  endfacet
  facet normal  0.000000e+000 -9.238796e-001  3.826833e-001
    outer loop
      vertex  1.000000e+001  7.778175e-001 -8.777818e+000
      vertex  0.000000e+000  1.100000e+000 -8.000000e+000
      vertex  0.000000e+000  7.778175e-001 -8.777818e+000
    endloop
  endfacet
  facet normal  0.000000e+000 -3.826835e-001  9.238795e-001
    outer loop
      vertex  1.000000e+001  7.778175e-001 -8.777818e+000
      vertex  0.000000e+000  7.778175e-001 -8.777818e+000
      vertex  1.000000e+001 -2.020601e-016 -9.100000e+000
    endloop
  endfacet
  facet normal  0.000000e+000 -3.826835e-001  9.238795e-001
    outer loop
      vertex  1.000000e+001 -2.020601e-016 -9.100000e+000
      vertex  0.000000e+000  7.778175e-001 -8.777818e+000
      vertex  0.000000e+000 -2.020601e-016 -9.100000e+000
    endloop
  endfacet
  facet normal  -0.000000e+000  3.826835e-001  9.238795e-001
    outer loop
      vertex  1.000000e+001 -2.020601e-016 -9.100000e+000
      vertex  0.000000e+000 -2.020601e-016 -9.100000e+000
      vertex  1.000000e+001 -7.778175e-001 -8.777818e+000
    endloop
  endfacet
  facet normal  0.000000e+000  3.826835e-001  9.238795e-001
    outer loop
      vertex  1.000000e+001 -7.778175e-001 -8.777818e+000
      vertex  0.000000e+000 -2.020601e-016 -9.100000e+000
      vertex  0.000000e+000 -7.778175e-001 -8.777818e+000
    endloop
  endfacet
  facet normal  -0.000000e+000  9.238796e-001  3.826833e-001
    outer loop
      vertex  1.000000e+001 -7.778175e-001 -8.777818e+000
      vertex  0.000000e+000 -7.778175e-001 -8.777818e+000
      vertex  1.000000e+001 -1.100000e+000 -8.000000e+000
    endloop
  endfacet
  facet normal  0.000000e+000  9.238796e-001  3.826833e-001
    outer loop
      vertex  1.000000e+001 -1.100000e+000 -8.000000e+000
      vertex  0.000000e+000 -7.778175e-001 -8.777818e+000
      vertex  0.000000e+000 -1.100000e+000 -8.000000e+000
    endloop
  endfacet
  facet normal  0.000000e+000  9.238796e-001 -3.826833e-001
    outer loop
      vertex  1.000000e+001 -1.100000e+000  8.000000e+000
      vertex  0.000000e+000 -1.100000e+000  8.000000e+000
      vertex  1.000000e+001 -7.778175e-001  8.777818e+000
    endloop
  endfacet
  facet normal  0.000000e+000  9.238796e-001 -3.826833e-001
    outer loop
      vertex  1.000000e+001 -7.778175e-001  8.777818e+000
      vertex  0.000000e+000 -1.100000e+000  8.000000e+000
      vertex  0.000000e+000 -7.778175e-001  8.777818e+000
    endloop
  endfacet
  facet normal  0.000000e+000  3.826835e-001 -9.238795e-001
    outer loop
      vertex  1.000000e+001 -7.778175e-001  8.777818e+000
      vertex  0.000000e+000 -7.778175e-001  8.777818e+000
      vertex  1.000000e+001  6.735335e-017  9.100000e+000
    endloop
  endfacet
  facet normal  0.000000e+000  3.826835e-001 -9.238795e-001
    outer loop
      vertex  1.000000e+001  6.735335e-017  9.100000e+000
      vertex  0.000000e+000 -7.778175e-001  8.777818e+000
      vertex  0.000000e+000  6.735335e-017  9.100000e+000
    endloop
  endfacet
  facet normal  0.000000e+000 -3.826835e-001 -9.238795e-001
    outer loop
      vertex  1.000000e+001  6.735335e-017  9.100000e+000
      vertex  0.000000e+000  6.735335e-017  9.100000e+000
      vertex  1.000000e+001  7.778175e-001  8.777818e+000
    endloop
  endfacet
  facet normal  -0.000000e+000 -3.826835e-001 -9.238795e-001
    outer loop
      vertex  1.000000e+001  7.778175e-001  8.777818e+000
      vertex  0.000000e+000  6.735335e-017  9.100000e+000
      vertex  0.000000e+000  7.778175e-001  8.777818e+000
    endloop
  endfacet
  facet normal  0.000000e+000 -9.238796e-001 -3.826833e-001
    outer loop
      vertex  1.000000e+001  7.778175e-001  8.777818e+000
      vertex  0.000000e+000  7.778175e-001  8.777818e+000
      vertex  1.000000e+001  1.100000e+000  8.000000e+000
    endloop
  endfacet
  facet normal  -0.000000e+000 -9.238796e-001 -3.826833e-001
    outer loop
      vertex  1.000000e+001  1.100000e+000  8.000000e+000
      vertex  0.000000e+000  7.778175e-001  8.777818e+000
      vertex  0.000000e+000  1.100000e+000  8.000000e+000
    endloop
  endfacet
  facet normal  0.000000e+000 -9.238794e-001  3.826835e-001
    outer loop
      vertex  1.000000e+001  1.100000e+000  8.000000e+000
      vertex  0.000000e+000  1.100000e+000  8.000000e+000
      vertex  1.000000e+001  7.778175e-001  7.222183e+000
    endloop
  endfacet
  facet normal  0.000000e+000 -9.238794e-001  3.826835e-001
    outer loop
      vertex  1.000000e+001  7.778175e-001  7.222183e+000
      vertex  0.000000e+000  1.100000e+000  8.000000e+000
      vertex  0.000000e+000  7.778175e-001  7.222183e+000
    endloop
  endfacet
  facet normal  0.000000e+000 -3.826835e-001  9.238795e-001
    outer loop
      vertex  1.000000e+001  7.778175e-001  7.222183e+000
      vertex  0.000000e+000  7.778175e-001  7.222183e+000
      vertex  1.000000e+001 -2.020601e-016  6.900000e+000
    endloop
  endfacet
  facet normal  0.000000e+000 -3.826835e-001  9.238795e-001
    outer loop
      vertex  1.000000e+001 -2.020601e-016  6.900000e+000
      vertex  0.000000e+000  7.778175e-001  7.222183e+000
      vertex  0.000000e+000 -2.020601e-016  6.900000e+000
    endloop
  endfacet
  facet normal  -0.000000e+000  3.826835e-001  9.238795e-001
    outer loop
      vertex  1.000000e+001 -2.020601e-016  6.900000e+000
      vertex  0.000000e+000 -2.020601e-016  6.900000e+000
      vertex  1.000000e+001 -7.778175e-001  7.222183e+000
    endloop
  endfacet
  facet normal  0.000000e+000  3.826835e-001  9.238795e-001
    outer loop
      vertex  1.000000e+001 -7.778175e-001  7.222183e+000
      vertex  0.000000e+000 -2.020601e-016  6.900000e+000
      vertex  0.000000e+000 -7.778175e-001  7.222183e+000
    endloop
  endfacet
  facet normal  -0.000000e+000  9.238794e-001  3.826835e-001
    outer loop
      vertex  1.000000e+001 -7.778175e-001  7.222183e+000
      vertex  0.000000e+000 -7.778175e-001  7.222183e+000
      vertex  1.000000e+001 -1.100000e+000  8.000000e+000
    endloop
  endfacet
  facet normal  0.000000e+000  9.238794e-001  3.826835e-001
    outer loop
      vertex  1.000000e+001 -1.100000e+000  8.000000e+000
      vertex  0.000000e+000 -7.778175e-001  7.222183e+000
      vertex  0.000000e+000 -1.100000e+000  8.000000e+000
    endloop
  endfacet
  facet normal  0.000000e+000  1.000000e+000  0.000000e+000
    outer loop
      vertex  0.000000e+000  5.000000e+001 -1.000000e+001
      vertex  0.000000e+000  5.000000e+001  0.000000e+000
      vertex  1.000000e+001  5.000000e+001 -1.000000e+001
    endloop
  endfacet
  facet normal  0.000000e+000  1.000000e+000  -0.000000e+000
    outer loop
      vertex  1.000000e+001  5.000000e+001 -1.000000e+001
      vertex  0.000000e+000  5.000000e+001  0.000000e+000
      vertex  1.000000e+001  5.000000e+001  0.000000e+000
    endloop
  endfacet
  facet normal  -0.000000e+000  0.000000e+000 -1.000000e+000
    outer loop
      vertex  0.000000e+000  5.000000e+001 -1.000000e+001
      vertex  1.000000e+001  5.000000e+001 -1.000000e+001
      vertex  0.000000e+000 -1.836910e-015 -1.000000e+001
    endloop
  endfacet
  facet normal  0.000000e+000  0.000000e+000 -1.000000e+000
    outer loop
      vertex  0.000000e+000 -1.836910e-015 -1.000000e+001
      vertex  1.000000e+001  5.000000e+001 -1.000000e+001
      vertex  1.000000e+001 -1.836910e-015 -1.000000e+001
    endloop
  endfacet
  facet normal  -0.000000e+000 -1.852870e-001 -9.826844e-001
    outer loop
      vertex  0.000000e+000 -1.836910e-015 -1.000000e+001
      vertex  1.000000e+001 -1.836910e-015 -1.000000e+001
      vertex  0.000000e+000 -3.641573e+000 -9.313375e+000
    endloop
  endfacet
  facet normal  0.000000e+000 -1.852870e-001 -9.826844e-001
    outer loop
      vertex  0.000000e+000 -3.641573e+000 -9.313375e+000
      vertex  1.000000e+001 -1.836910e-015 -1.000000e+001
      vertex  1.000000e+001 -3.641573e+000 -9.313375e+000
    endloop
  endfacet
  facet normal  -0.000000e+000 -5.304164e-001 -8.477372e-001
    outer loop
      vertex  0.000000e+000 -3.641573e+000 -9.313375e+000
      vertex  1.000000e+001 -3.641573e+000 -9.313375e+000
      vertex  0.000000e+000 -6.783067e+000 -7.347789e+000
    endloop
  endfacet
  facet normal  0.000000e+000 -5.304164e-001 -8.477372e-001
    outer loop
      vertex  0.000000e+000 -6.783067e+000 -7.347789e+000
      vertex  1.000000e+001 -3.641573e+000 -9.313375e+000
      vertex  1.000000e+001 -6.783067e+000 -7.347789e+000
    endloop
  endfacet
  facet normal  -0.000000e+000 -8.027064e-001 -5.963745e-001
    outer loop
      vertex  0.000000e+000 -6.783067e+000 -7.347789e+000
      vertex  1.000000e+001 -6.783067e+000 -7.347789e+000
      vertex  0.000000e+000 -8.993075e+000 -4.373168e+000
    endloop
  endfacet
  facet normal  0.000000e+000 -8.027064e-001 -5.963745e-001
    outer loop
      vertex  0.000000e+000 -8.993075e+000 -4.373168e+000
      vertex  1.000000e+001 -6.783067e+000 -7.347789e+000
      vertex  1.000000e+001 -8.993075e+000 -4.373168e+000
    endloop
  endfacet
  facet normal  -0.000000e+000 -9.647646e-001 -2.631144e-001
    outer loop
      vertex  0.000000e+000 -8.993075e+000 -4.373168e+000
      vertex  1.000000e+001 -8.993075e+000 -4.373168e+000
      vertex  0.000000e+000 -9.968109e+000 -7.980011e-001
    endloop
  endfacet
  facet normal  0.000000e+000 -9.647646e-001 -2.631144e-001
    outer loop
      vertex  0.000000e+000 -9.968109e+000 -7.980011e-001
      vertex  1.000000e+001 -8.993075e+000 -4.373168e+000
      vertex  1.000000e+001 -9.968109e+000 -7.980011e-001
    endloop
  endfacet
  facet normal  0.000000e+000 -9.943364e-001  1.062778e-001
    outer loop
      vertex  0.000000e+000 -9.968109e+000 -7.980011e-001
      vertex  1.000000e+001 -9.968109e+000 -7.980011e-001
      vertex  0.000000e+000 -9.574271e+000  2.886751e+000
    endloop
  endfacet
  facet normal  0.000000e+000 -9.943364e-001  1.062778e-001
    outer loop
      vertex  0.000000e+000 -9.574271e+000  2.886751e+000
      vertex  1.000000e+001 -9.968109e+000 -7.980011e-001
      vertex  1.000000e+001 -9.574271e+000  2.886751e+000
    endloop
  endfacet
  facet normal  0.000000e+000 -8.873609e-001  4.610753e-001
    outer loop
      vertex  0.000000e+000 -9.574271e+000  2.886751e+000
      vertex  1.000000e+001 -9.574271e+000  2.886751e+000
      vertex  0.000000e+000 -7.865646e+000  6.175080e+000
    endloop
  endfacet
  facet normal  0.000000e+000 -8.873609e-001  4.610753e-001
    outer loop
      vertex  0.000000e+000 -7.865646e+000  6.175080e+000
      vertex  1.000000e+001 -9.574271e+000  2.886751e+000
      vertex  1.000000e+001 -7.865646e+000  6.175080e+000
    endloop
  endfacet
  facet normal  0.000000e+000 -6.585286e-001  7.525558e-001
    outer loop
      vertex  0.000000e+000 -7.865646e+000  6.175080e+000
      vertex  1.000000e+001 -7.865646e+000  6.175080e+000
      vertex  0.000000e+000 -5.076870e+000  8.615416e+000
    endloop
  endfacet
  facet normal  0.000000e+000 -6.585286e-001  7.525558e-001
    outer loop
      vertex  0.000000e+000 -5.076870e+000  8.615416e+000
      vertex  1.000000e+001 -7.865646e+000  6.175080e+000
      vertex  1.000000e+001 -5.076870e+000  8.615416e+000
    endloop
  endfacet
  facet normal  0.000000e+000 -3.392637e-001  9.406913e-001
    outer loop
      vertex  0.000000e+000 -5.076870e+000  8.615416e+000
      vertex  1.000000e+001 -5.076870e+000  8.615416e+000
      vertex  0.000000e+000 -1.590912e+000  9.872639e+000
    endloop
  endfacet
  facet normal  0.000000e+000 -3.392637e-001  9.406913e-001
    outer loop
      vertex  0.000000e+000 -1.590912e+000  9.872639e+000
      vertex  1.000000e+001 -5.076870e+000  8.615416e+000
      vertex  1.000000e+001 -1.590912e+000  9.872639e+000
    endloop
  endfacet
  facet normal  0.000000e+000  2.659075e-002  9.996464e-001
    outer loop
      vertex  0.000000e+000 -1.590912e+000  9.872639e+000
      vertex  1.000000e+001 -1.590912e+000  9.872639e+000
      vertex  0.000000e+000  2.113517e+000  9.774100e+000
    endloop
  endfacet
  facet normal  -0.000000e+000  2.659075e-002  9.996464e-001
    outer loop
      vertex  0.000000e+000  2.113517e+000  9.774100e+000
      vertex  1.000000e+001 -1.590912e+000  9.872639e+000
      vertex  1.000000e+001  2.113517e+000  9.774100e+000
    endloop
  endfacet
  facet normal  0.000000e+000  3.887934e-001  9.213249e-001
    outer loop
      vertex  0.000000e+000  2.113517e+000  9.774100e+000
      vertex  1.000000e+001  2.113517e+000  9.774100e+000
      vertex  0.000000e+000  5.527708e+000  8.333333e+000
    endloop
  endfacet
  facet normal  -0.000000e+000  3.887934e-001  9.213249e-001
    outer loop
      vertex  0.000000e+000  5.527708e+000  8.333333e+000
      vertex  1.000000e+001  2.113517e+000  9.774100e+000
      vertex  1.000000e+001  5.527708e+000  8.333333e+000
    endloop
  endfacet
  facet normal  -0.000000e+000  7.314532e-002  9.973212e-001
    outer loop
      vertex  1.000000e+001  3.316625e+001  0.000000e+000
      vertex  0.000000e+000  3.316625e+001  0.000000e+000
      vertex  1.000000e+001  2.587131e+001  5.350236e-001
    endloop
  endfacet
  facet normal  0.000000e+000  7.314532e-002  9.973212e-001
    outer loop
      vertex  1.000000e+001  2.587131e+001  5.350236e-001
      vertex  0.000000e+000  3.316625e+001  0.000000e+000
      vertex  0.000000e+000  2.587131e+001  5.350236e-001
    endloop
  endfacet
  facet normal  -0.000000e+000  2.178705e-001  9.759777e-001
    outer loop
      vertex  1.000000e+001  2.587131e+001  5.350236e-001
      vertex  0.000000e+000  2.587131e+001  5.350236e-001
      vertex  1.000000e+001  1.873249e+001  2.128645e+000
    endloop
  endfacet
  facet normal  0.000000e+000  2.178705e-001  9.759777e-001
    outer loop
      vertex  1.000000e+001  1.873249e+001  2.128645e+000
      vertex  0.000000e+000  2.587131e+001  5.350236e-001
      vertex  0.000000e+000  1.873249e+001  2.128645e+000
    endloop
  endfacet
  facet normal  -0.000000e+000  3.579332e-001  9.337472e-001
    outer loop
      vertex  1.000000e+001  1.873249e+001  2.128645e+000
      vertex  0.000000e+000  1.873249e+001  2.128645e+000
      vertex  1.000000e+001  1.190257e+001  4.746758e+000
    endloop
  endfacet
  facet normal  0.000000e+000  3.579332e-001  9.337472e-001
    outer loop
      vertex  1.000000e+001  1.190257e+001  4.746758e+000
      vertex  0.000000e+000  1.873249e+001  2.128645e+000
      vertex  0.000000e+000  1.190257e+001  4.746758e+000
    endloop
  endfacet
  facet normal  -0.000000e+000  4.903356e-001  8.715337e-001
    outer loop
      vertex  1.000000e+001  1.190257e+001  4.746758e+000
      vertex  0.000000e+000  1.190257e+001  4.746758e+000
      vertex  1.000000e+001  5.527708e+000  8.333333e+000
    endloop
  endfacet
  facet normal  0.000000e+000  4.903356e-001  8.715337e-001
    outer loop
      vertex  1.000000e+001  5.527708e+000  8.333333e+000
      vertex  0.000000e+000  1.190257e+001  4.746758e+000
      vertex  0.000000e+000  5.527708e+000  8.333333e+000
    endloop
  endfacet
  facet normal  0.000000e+000  0.000000e+000  1.000000e+000
    outer loop
      vertex  0.000000e+000  3.316625e+001  0.000000e+000
      vertex  1.000000e+001  3.316625e+001  0.000000e+000
      vertex  0.000000e+000  5.000000e+001  0.000000e+000
    endloop
  endfacet
  facet normal  -0.000000e+000  0.000000e+000  1.000000e+000
    outer loop
      vertex  0.000000e+000  5.000000e+001  0.000000e+000
      vertex  1.000000e+001  3.316625e+001  0.000000e+000
      vertex  1.000000e+001  5.000000e+001  0.000000e+000
    endloop
  endfacet
endsolid CATIA STL
